<svg xmlns="http://www.w3.org/2000/svg" viewBox="0 0 200 200" width="200" height="200">
  <circle cx="100" cy="100" r="100" fill="#000000"/>
  <defs><clipPath id="circleClip"><circle cx="100" cy="100" r="100"/></clipPath></defs>
  <g clip-path="url(#circleClip)">
    <g transform="translate(1, 4)">

      <rect x="64" y="0" width="6" height="11" fill="#808080"/>
      <rect x="72" y="0" width="6" height="11" fill="#FFFFFF"/>
      <rect x="80" y="0" width="6" height="11" fill="#808080"/>
      <rect x="88" y="0" width="6" height="11" fill="#FFFFFF"/>
      <rect x="96" y="0" width="6" height="11" fill="#808080"/>
      <rect x="104" y="0" width="6" height="11" fill="#FFFFFF"/>
      <rect x="112" y="0" width="6" height="11" fill="#808080"/>
      <rect x="120" y="0" width="6" height="11" fill="#FFFFFF"/>
      <rect x="128" y="0" width="6" height="11" fill="#808080"/>
  
      <rect x="40" y="14" width="6" height="11" fill="#808080"/>
      <rect x="48" y="14" width="6" height="11" fill="#FFFFFF"/>
      <rect x="56" y="14" width="6" height="11" fill="#808080"/>
      <rect x="64" y="14" width="6" height="11" fill="#FFFFFF"/>
      <rect x="72" y="14" width="6" height="11" fill="#808080"/>
      <rect x="80" y="14" width="6" height="11" fill="#FFFFFF"/>
      <rect x="88" y="14" width="6" height="11" fill="#808080"/>
      <rect x="96" y="14" width="6" height="11" fill="#FFFFFF"/>
      <rect x="104" y="14" width="6" height="11" fill="#808080"/>
      <rect x="112" y="14" width="6" height="11" fill="#FFFFFF"/>
      <rect x="120" y="14" width="6" height="11" fill="#808080"/>
      <rect x="128" y="14" width="6" height="11" fill="#FFFFFF"/>
      <rect x="136" y="14" width="6" height="11" fill="#808080"/>
      <rect x="144" y="14" width="6" height="11" fill="#FFFFFF"/>
      <rect x="152" y="14" width="6" height="11" fill="#808080"/>
      <rect x="160" y="14" width="6" height="11" fill="#FFFFFF"/>
      
      <rect x="24" y="28" width="6" height="11" fill="#FFFFFF"/>
      <rect x="32" y="28" width="6" height="11" fill="#808080"/>
      <rect x="40" y="28" width="6" height="11" fill="#FFFFFF"/>
      <rect x="48" y="28" width="6" height="11" fill="#808080"/>
      <rect x="56" y="28" width="6" height="11" fill="#FFFFFF"/>
      <rect x="64" y="28" width="6" height="11" fill="#808080"/>
      <rect x="72" y="28" width="6" height="11" fill="#FFFFFF"/>
      <rect x="80" y="28" width="6" height="11" fill="#808080"/>
      <rect x="88" y="28" width="6" height="11" fill="#FFFFFF"/>
      <rect x="96" y="28" width="6" height="11" fill="#808080"/>
      <rect x="104" y="28" width="6" height="11" fill="#FFFFFF"/>
      <rect x="112" y="28" width="6" height="11" fill="#808080"/>
      <rect x="120" y="28" width="6" height="11" fill="#FFFFFF"/>
      <rect x="128" y="28" width="6" height="11" fill="#808080"/>
      <rect x="136" y="28" width="6" height="11" fill="#FFFFFF"/>
      <rect x="144" y="28" width="6" height="11" fill="#808080"/>
      <rect x="152" y="28" width="6" height="11" fill="#FFFFFF"/>
      <rect x="160" y="28" width="6" height="11" fill="#808080"/>
      <rect x="168" y="28" width="6" height="11" fill="#FFFFFF"/>

      <rect x="16" y="42" width="6" height="11" fill="#FFFFFF"/>
      <rect x="24" y="42" width="6" height="11" fill="#808080"/>
      <rect x="32" y="42" width="6" height="11" fill="#FFFFFF"/>
      <rect x="40" y="42" width="6" height="11" fill="#808080"/>
      <rect x="48" y="42" width="6" height="11" fill="#FFFFFF"/>
      <rect x="56" y="42" width="6" height="11" fill="#808080"/>
      <rect x="64" y="42" width="6" height="11" fill="#FFFFFF"/>
      <rect x="72" y="42" width="6" height="11" fill="#808080"/>
      <rect x="80" y="42" width="6" height="11" fill="#FFFFFF"/>
      <rect x="88" y="42" width="6" height="11" fill="#808080"/>
      <rect x="96" y="42" width="6" height="11" fill="#FFFFFF"/>
      <rect x="104" y="42" width="6" height="11" fill="#808080"/>
      <rect x="112" y="42" width="6" height="11" fill="#FFFFFF"/>
      <rect x="120" y="42" width="6" height="11" fill="#808080"/>
      <rect x="128" y="42" width="6" height="11" fill="#FFFFFF"/>
      <rect x="136" y="42" width="6" height="11" fill="#808080"/>
      <rect x="144" y="42" width="6" height="11" fill="#FFFFFF"/>
      <rect x="152" y="42" width="6" height="11" fill="#808080"/>
      <rect x="160" y="42" width="6" height="11" fill="#FFFFFF"/>
      <rect x="168" y="42" width="6" height="11" fill="#808080"/>
      <rect x="176" y="42" width="6" height="11" fill="#FFFFFF"/>
 
      <rect x="8" y="56" width="6" height="11" fill="#FFFFFF"/>
      <rect x="16" y="56" width="6" height="11" fill="#808080"/>
      <rect x="24" y="56" width="6" height="11" fill="#FFFFFF"/>
      <rect x="32" y="56" width="6" height="11" fill="#808080"/>
      <rect x="40" y="56" width="6" height="11" fill="#FFFFFF"/>
      <rect x="48" y="56" width="6" height="11" fill="#808080"/>
      <rect x="56" y="56" width="6" height="11" fill="#FFFFFF"/>
      <rect x="64" y="56" width="6" height="11" fill="#808080"/>
      <rect x="72" y="56" width="6" height="11" fill="#FFFFFF"/>
      <rect x="80" y="56" width="6" height="11" fill="#808080"/>
      <rect x="88" y="56" width="6" height="11" fill="#FFFFFF"/>
      <rect x="96" y="56" width="6" height="11" fill="#808080"/>
      <rect x="104" y="56" width="6" height="11" fill="#FFFFFF"/>
      <rect x="112" y="56" width="6" height="11" fill="#808080"/>
      <rect x="120" y="56" width="6" height="11" fill="#FFFFFF"/>
      <rect x="128" y="56" width="6" height="11" fill="#808080"/>
      <rect x="136" y="56" width="6" height="11" fill="#FFFFFF"/>
      <rect x="144" y="56" width="6" height="11" fill="#808080"/>
      <rect x="152" y="56" width="6" height="11" fill="#FFFFFF"/>
      <rect x="160" y="56" width="6" height="11" fill="#808080"/>
      <rect x="168" y="56" width="6" height="11" fill="#FFFFFF"/>
      <rect x="176" y="56" width="6" height="11" fill="#808080"/>
      <rect x="184" y="56" width="6" height="11" fill="#FFFFFF"/>
 
      <rect x="0" y="70" width="6" height="11" fill="#FFFFFF"/>
      <rect x="8" y="70" width="6" height="11" fill="#808080"/>
      <rect x="16" y="70" width="6" height="11" fill="#FFFFFF"/>
      <rect x="24" y="70" width="6" height="11" fill="#808080"/>
      <rect x="32" y="70" width="6" height="11" fill="#FFFFFF"/>
      <rect x="40" y="70" width="6" height="11" fill="#808080"/>
      <rect x="48" y="70" width="6" height="11" fill="#FFFFFF"/>
      <rect x="56" y="70" width="6" height="11" fill="#808080"/>
      <rect x="64" y="70" width="6" height="11" fill="#FFFFFF"/>
      <rect x="72" y="70" width="6" height="11" fill="#808080"/>
      <rect x="80" y="70" width="6" height="11" fill="#FFFFFF"/>
      <rect x="88" y="70" width="6" height="11" fill="#808080"/>
      <rect x="96" y="70" width="6" height="11" fill="#FFFFFF"/>
      <rect x="104" y="70" width="6" height="11" fill="#808080"/>
      <rect x="112" y="70" width="6" height="11" fill="#FFFFFF"/>
      <rect x="120" y="70" width="6" height="11" fill="#808080"/>
      <rect x="128" y="70" width="6" height="11" fill="#FFFFFF"/>
      <rect x="136" y="70" width="6" height="11" fill="#808080"/>
      <rect x="144" y="70" width="6" height="11" fill="#FFFFFF"/>
      <rect x="152" y="70" width="6" height="11" fill="#808080"/>
      <rect x="160" y="70" width="6" height="11" fill="#FFFFFF"/>
      <rect x="168" y="70" width="6" height="11" fill="#808080"/>
      <rect x="176" y="70" width="6" height="11" fill="#FFFFFF"/>
      <rect x="184" y="70" width="6" height="11" fill="#808080"/>
      <rect x="192" y="70" width="6" height="11" fill="#FFFFFF"/>

      <rect x="0" y="84" width="6" height="11" fill="#808080"/>
      <rect x="8" y="84" width="6" height="11" fill="#FFFFFF"/>
      <rect x="16" y="84" width="6" height="11" fill="#808080"/>
      <rect x="24" y="84" width="6" height="11" fill="#FFFFFF"/>
      <rect x="32" y="84" width="6" height="11" fill="#808080"/>
      <rect x="40" y="84" width="6" height="11" fill="#FFFFFF"/>
      <rect x="48" y="84" width="6" height="11" fill="#808080"/>
      <rect x="56" y="84" width="6" height="11" fill="#FFFFFF"/>
      <rect x="64" y="84" width="6" height="11" fill="#808080"/>
      <rect x="72" y="84" width="6" height="11" fill="#FFFFFF"/>
      <rect x="80" y="84" width="6" height="11" fill="#808080"/>
      <rect x="88" y="84" width="6" height="11" fill="#FFFFFF"/>
      <rect x="96" y="84" width="6" height="11" fill="#808080"/>
      <rect x="104" y="84" width="6" height="11" fill="#FFFFFF"/>
      <rect x="112" y="84" width="6" height="11" fill="#808080"/>
      <rect x="120" y="84" width="6" height="11" fill="#FFFFFF"/>
      <rect x="128" y="84" width="6" height="11" fill="#808080"/>
      <rect x="136" y="84" width="6" height="11" fill="#FFFFFF"/>
      <rect x="144" y="84" width="6" height="11" fill="#808080"/>
      <rect x="152" y="84" width="6" height="11" fill="#FFFFFF"/>
      <rect x="160" y="84" width="6" height="11" fill="#808080"/>
      <rect x="168" y="84" width="6" height="11" fill="#FFFFFF"/>
      <rect x="176" y="84" width="6" height="11" fill="#808080"/>
      <rect x="184" y="84" width="6" height="11" fill="#FFFFFF"/>
      <rect x="192" y="84" width="6" height="11" fill="#808080"/>

      <rect x="0" y="98" width="6" height="11" fill="#FFFFFF"/>
      <rect x="8" y="98" width="6" height="11" fill="#808080"/>
      <rect x="16" y="98" width="6" height="11" fill="#FFFFFF"/>
      <rect x="24" y="98" width="6" height="11" fill="#808080"/>
      <rect x="32" y="98" width="6" height="11" fill="#FFFFFF"/>
      <rect x="40" y="98" width="6" height="11" fill="#808080"/>
      <rect x="48" y="98" width="6" height="11" fill="#FFFFFF"/>
      <rect x="56" y="98" width="6" height="11" fill="#808080"/>
      <rect x="64" y="98" width="6" height="11" fill="#FFFFFF"/>
      <rect x="72" y="98" width="6" height="11" fill="#808080"/>
      <rect x="80" y="98" width="6" height="11" fill="#FFFFFF"/>
      <rect x="88" y="98" width="6" height="11" fill="#808080"/>
      <rect x="96" y="98" width="6" height="11" fill="#FFFFFF"/>
      <rect x="104" y="98" width="6" height="11" fill="#808080"/>
      <rect x="112" y="98" width="6" height="11" fill="#FFFFFF"/>
      <rect x="120" y="98" width="6" height="11" fill="#808080"/>
      <rect x="128" y="98" width="6" height="11" fill="#FFFFFF"/>
      <rect x="136" y="98" width="6" height="11" fill="#808080"/>
      <rect x="144" y="98" width="6" height="11" fill="#FFFFFF"/>
      <rect x="152" y="98" width="6" height="11" fill="#808080"/>
      <rect x="160" y="98" width="6" height="11" fill="#FFFFFF"/>
      <rect x="168" y="98" width="6" height="11" fill="#808080"/>
      <rect x="176" y="98" width="6" height="11" fill="#FFFFFF"/>
      <rect x="184" y="98" width="6" height="11" fill="#808080"/>
      <rect x="192" y="98" width="6" height="11" fill="#FFFFFF"/>
      <rect x="200" y="98" width="6" height="11" fill="#808080"/>

      <rect x="0" y="112" width="6" height="11" fill="#808080"/>
      <rect x="8" y="112" width="6" height="11" fill="#FFFFFF"/>
      <rect x="16" y="112" width="6" height="11" fill="#808080"/>
      <rect x="24" y="112" width="6" height="11" fill="#FFFFFF"/>
      <rect x="32" y="112" width="6" height="11" fill="#808080"/>
      <rect x="40" y="112" width="6" height="11" fill="#FFFFFF"/>
      <rect x="48" y="112" width="6" height="11" fill="#808080"/>
      <rect x="56" y="112" width="6" height="11" fill="#FFFFFF"/>
      <rect x="64" y="112" width="6" height="11" fill="#808080"/>
      <rect x="72" y="112" width="6" height="11" fill="#FFFFFF"/>
      <rect x="80" y="112" width="6" height="11" fill="#808080"/>
      <rect x="88" y="112" width="6" height="11" fill="#FFFFFF"/>
      <rect x="96" y="112" width="6" height="11" fill="#808080"/>
      <rect x="104" y="112" width="6" height="11" fill="#FFFFFF"/>
      <rect x="112" y="112" width="6" height="11" fill="#808080"/>
      <rect x="120" y="112" width="6" height="11" fill="#FFFFFF"/>
      <rect x="128" y="112" width="6" height="11" fill="#808080"/>
      <rect x="136" y="112" width="6" height="11" fill="#FFFFFF"/>
      <rect x="144" y="112" width="6" height="11" fill="#808080"/>
      <rect x="152" y="112" width="6" height="11" fill="#FFFFFF"/>
      <rect x="160" y="112" width="6" height="11" fill="#808080"/>
      <rect x="168" y="112" width="6" height="11" fill="#FFFFFF"/>
      <rect x="176" y="112" width="6" height="11" fill="#808080"/>
      <rect x="184" y="112" width="6" height="11" fill="#FFFFFF"/>
      <rect x="192" y="112" width="6" height="11" fill="#808080"/>
      <rect x="200" y="112" width="6" height="11" fill="#FFFFFF"/>

      <rect x="8" y="126" width="6" height="11" fill="#808080"/>
      <rect x="16" y="126" width="6" height="11" fill="#FFFFFF"/>
      <rect x="24" y="126" width="6" height="11" fill="#808080"/>
      <rect x="32" y="126" width="6" height="11" fill="#FFFFFF"/>
      <rect x="40" y="126" width="6" height="11" fill="#808080"/>
      <rect x="48" y="126" width="6" height="11" fill="#FFFFFF"/>
      <rect x="56" y="126" width="6" height="11" fill="#808080"/>
      <rect x="64" y="126" width="6" height="11" fill="#FFFFFF"/>
      <rect x="72" y="126" width="6" height="11" fill="#808080"/>
      <rect x="80" y="126" width="6" height="11" fill="#FFFFFF"/>
      <rect x="88" y="126" width="6" height="11" fill="#808080"/>
      <rect x="96" y="126" width="6" height="11" fill="#FFFFFF"/>
      <rect x="104" y="126" width="6" height="11" fill="#808080"/>
      <rect x="112" y="126" width="6" height="11" fill="#FFFFFF"/>
      <rect x="120" y="126" width="6" height="11" fill="#808080"/>
      <rect x="128" y="126" width="6" height="11" fill="#FFFFFF"/>
      <rect x="136" y="126" width="6" height="11" fill="#808080"/>
      <rect x="144" y="126" width="6" height="11" fill="#FFFFFF"/>
      <rect x="152" y="126" width="6" height="11" fill="#808080"/>
      <rect x="160" y="126" width="6" height="11" fill="#FFFFFF"/>
      <rect x="168" y="126" width="6" height="11" fill="#808080"/>
      <rect x="176" y="126" width="6" height="11" fill="#FFFFFF"/>
      <rect x="184" y="126" width="6" height="11" fill="#808080"/>

      <rect x="16" y="140" width="6" height="11" fill="#808080"/>
      <rect x="24" y="140" width="6" height="11" fill="#FFFFFF"/>
      <rect x="32" y="140" width="6" height="11" fill="#808080"/>
      <rect x="40" y="140" width="6" height="11" fill="#FFFFFF"/>
      <rect x="48" y="140" width="6" height="11" fill="#808080"/>
      <rect x="56" y="140" width="6" height="11" fill="#FFFFFF"/>
      <rect x="64" y="140" width="6" height="11" fill="#808080"/>
      <rect x="72" y="140" width="6" height="11" fill="#FFFFFF"/>
      <rect x="80" y="140" width="6" height="11" fill="#808080"/>
      <rect x="88" y="140" width="6" height="11" fill="#FFFFFF"/>
      <rect x="96" y="140" width="6" height="11" fill="#808080"/>
      <rect x="104" y="140" width="6" height="11" fill="#FFFFFF"/>
      <rect x="112" y="140" width="6" height="11" fill="#808080"/>
      <rect x="120" y="140" width="6" height="11" fill="#FFFFFF"/>
      <rect x="128" y="140" width="6" height="11" fill="#808080"/>
      <rect x="136" y="140" width="6" height="11" fill="#FFFFFF"/>
      <rect x="144" y="140" width="6" height="11" fill="#808080"/>
      <rect x="152" y="140" width="6" height="11" fill="#FFFFFF"/>
      <rect x="160" y="140" width="6" height="11" fill="#808080"/>
      <rect x="168" y="140" width="6" height="11" fill="#FFFFFF"/>
      <rect x="176" y="140" width="6" height="11" fill="#808080"/>

      <rect x="24" y="154" width="6" height="11" fill="#808080"/>
      <rect x="32" y="154" width="6" height="11" fill="#FFFFFF"/>
      <rect x="40" y="154" width="6" height="11" fill="#808080"/>
      <rect x="48" y="154" width="6" height="11" fill="#FFFFFF"/>
      <rect x="56" y="154" width="6" height="11" fill="#808080"/>
      <rect x="64" y="154" width="6" height="11" fill="#FFFFFF"/>
      <rect x="72" y="154" width="6" height="11" fill="#808080"/>
      <rect x="80" y="154" width="6" height="11" fill="#FFFFFF"/>
      <rect x="88" y="154" width="6" height="11" fill="#808080"/>
      <rect x="96" y="154" width="6" height="11" fill="#FFFFFF"/>
      <rect x="104" y="154" width="6" height="11" fill="#808080"/>
      <rect x="112" y="154" width="6" height="11" fill="#FFFFFF"/>
      <rect x="120" y="154" width="6" height="11" fill="#808080"/>
      <rect x="128" y="154" width="6" height="11" fill="#FFFFFF"/>
      <rect x="136" y="154" width="6" height="11" fill="#808080"/>
      <rect x="144" y="154" width="6" height="11" fill="#FFFFFF"/>
      <rect x="152" y="154" width="6" height="11" fill="#808080"/>
      <rect x="160" y="154" width="6" height="11" fill="#FFFFFF"/>
      <rect x="168" y="154" width="6" height="11" fill="#808080"/>

      <rect x="40" y="168" width="6" height="11" fill="#FFFFFF"/>
      <rect x="48" y="168" width="6" height="11" fill="#808080"/>
      <rect x="56" y="168" width="6" height="11" fill="#FFFFFF"/>
      <rect x="64" y="168" width="6" height="11" fill="#808080"/>
      <rect x="72" y="168" width="6" height="11" fill="#FFFFFF"/>
      <rect x="80" y="168" width="6" height="11" fill="#808080"/>
      <rect x="88" y="168" width="6" height="11" fill="#FFFFFF"/>
      <rect x="96" y="168" width="6" height="11" fill="#808080"/>
      <rect x="104" y="168" width="6" height="11" fill="#FFFFFF"/>
      <rect x="112" y="168" width="6" height="11" fill="#808080"/>
      <rect x="120" y="168" width="6" height="11" fill="#FFFFFF"/>
      <rect x="128" y="168" width="6" height="11" fill="#808080"/>
      <rect x="136" y="168" width="6" height="11" fill="#FFFFFF"/>
      <rect x="144" y="168" width="6" height="11" fill="#808080"/>
      <rect x="152" y="168" width="6" height="11" fill="#FFFFFF"/>

      <rect x="64" y="182" width="6" height="11" fill="#FFFFFF"/>
      <rect x="72" y="182" width="6" height="11" fill="#808080"/>
      <rect x="80" y="182" width="6" height="11" fill="#FFFFFF"/>
      <rect x="88" y="182" width="6" height="11" fill="#808080"/>
      <rect x="96" y="182" width="6" height="11" fill="#FFFFFF"/>
      <rect x="104" y="182" width="6" height="11" fill="#808080"/>
      <rect x="112" y="182" width="6" height="11" fill="#FFFFFF"/>
      <rect x="120" y="182" width="6" height="11" fill="#808080"/>
      <rect x="128" y="182" width="6" height="11" fill="#FFFFFF"/>


    </g>
  </g>
</svg>